# xmcd
#
# Track frame offsets:
#	150
#	33133
#	90908
#	110315
#	125018
#	142798
#	166553
#	189083
#	235415
#	264293
#
# Disc length: 3807
#
# Revision: 4
# Processed by: cddbd v1.5.1PL0 Copyright (c) Steve Scherf et al.
# Submitted via: CDex 1.51
# Normalized: r3:DSETVAR1
#
DISCID=690edd0a
DTITLE=Various Artist - Al otro lado - Lo Mejor de la New Age
DYEAR=1995
DGENRE=New Age
TTITLE0=Loreena McKennitt - The Bonny Swans
TTITLE1=Lito Vitale - Ese Amigo Del Alma
TTITLE2=Beautiful World - In Existence
TTITLE3=Wim Mertens - Close Cover
TTITLE4=Philip Glass - End Credits (B.S.O. The Tin Blue Line)
TTITLE5=Vangelis - Twenty Eighth Parallel
TTITLE6=Pat Metheny - Let Joy And Innocence Prevail
TTITLE7=Art of noise - Moments In Love
TTITLE8=Ed Alleyne Johnson - Oxford Suite 1
TTITLE9=Julee Cruise - Friends For Life
EXTD=YEAR: 1995
EXTT0=
EXTT1=
EXTT2=
EXTT3=
EXTT4=
EXTT5=
EXTT6=
EXTT7=
EXTT8=
EXTT9=
PLAYORDER=
